#!OML:ASF E:\Steps\Project 1\Capture day 1\Session 2\Subject.ASF
:FULLY-SPECIFIED
:DEGREES
468
root 0.502634 17.875 19.6648 -156.604 -3.05105 180.449
lowerback -23.271 -3.26381 -8.51861
upperback 0.90823 -2.25113 0.883619
thorax 14.5912 -1.7891 5.09347
lowerneck 0.257935 -6.98109 0.0309253
upperneck 26.115 -7.40064 0.959333
head 8.0588 -2.47794 -0.0440676
rclavicle -5.96354e-015 -1.23246e-014
rhumerus -44.4841 -17.3783 -74.5106
rradius 30.3916
rwrist 0.00780255
rhand -7.43806 -57.6654
rfingers 7.12502
rthumb 18.4495 633.189
lclavicle -5.96354e-015 -1.23246e-014
lhumerus -27.977 -4.08823 79.8886
lradius 26.1378
lwrist -0.130831
lhand -23.2418 -13.0159
lfingers 7.12502
lthumb 3.20961 16.9397
rfemur -33.7702 5.31276 4.00734
rtibia 12.2041
rfoot -14.8928 -6.83358
rtoes -33.1189
lfemur -21.0127 -12.5818 -13.5777
ltibia 15.6972
lfoot -15.6585 6.48756
ltoes -42.3889
469
root 0.560107 17.8626 19.6296 -156.451 -3.02227 180.354
lowerback -23.569 -3.23446 -8.47104
upperback 0.958602 -2.18489 0.802447
thorax 14.8062 -1.7611 4.98946
lowerneck 0.431376 -6.96843 0.136745
upperneck 25.8593 -7.42034 1.0257
head 7.93921 -2.48628 -0.0343206
rclavicle 6.95746e-015 1.59028e-014
rhumerus -44.3845 -17.4837 -74.6279
rradius 30.4022
rwrist -0.179306
rhand -8.73052 -56.2558
rfingers 7.12502
rthumb 17.2058 634.486
lclavicle 6.95746e-015 1.59028e-014
lhumerus -27.8502 -4.06357 79.7644
lradius 26.2363
lwrist -0.30093
lhand -23.119 -12.829
lfingers 7.12502
lthumb 3.32819 17.1248
rfemur -33.9877 4.94815 4.36061
rtibia 12.4258
rfoot -14.5812 -6.13085
rtoes -31.7721
lfemur -21.0229 -12.6113 -13.4232
ltibia 15.6953
lfoot -15.9971 6.48265
ltoes -41.4717
470
root 0.6221 17.8511 19.593 -156.338 -3.00708 180.231
lowerback -23.4348 -3.21672 -8.43124
upperback 0.798365 -2.19382 0.723804
thorax 14.5309 -1.74776 4.87492
lowerneck 0.769969 -6.94165 0.227064
upperneck 25.5838 -7.39072 1.04939
head 7.78295 -2.47197 -0.0268711
rclavicle -1.45113e-014 -5.96354e-015
rhumerus -44.6889 -17.3803 -74.7015
rradius 30.5271
rwrist -0.244846
rhand -9.32414 -56.0799
rfingers 7.12502
rthumb 16.6344 634.613
lclavicle -1.45113e-014 -5.96354e-015
lhumerus -28.2099 -4.11086 79.6393
lradius 26.3386
lwrist -0.139713
lhand -23.0762 -13.1609
lfingers 7.12502
lthumb 3.36954 16.7922
rfemur -34.19 4.88512 4.60522
rtibia 12.779
rfoot -14.6716 -5.96676
rtoes -31.2067
lfemur -20.9673 -12.6728 -13.3058
ltibia 15.6608
lfoot -16.2641 6.61199
ltoes -41.3788
471
root 0.686986 17.8413 19.5521 -156.335 -3.13795 180.055
lowerback -23.025 -3.2735 -8.52943
upperback 0.577711 -2.30562 0.741787
thorax 14.0546 -1.78761 4.92179
lowerneck 0.942612 -7.04156 0.259181
upperneck 25.5815 -7.45956 0.794386
head 7.74015 -2.51949 -0.113982
rclavicle -2.68359e-015 7.15625e-015
rhumerus -45.1606 -17.209 -74.4585
rradius 30.5933
rwrist -0.252501
rhand -9.14885 -56.29
rfingers 7.12502
rthumb 16.8031 634.417
lclavicle -2.68359e-015 7.15625e-015
lhumerus -28.6515 -4.04579 79.6265
lradius 26.3013
lwrist -0.080885
lhand -22.8678 -13.8402
lfingers 7.12502
lthumb 3.57078 16.1096
rfemur -34.247 5.15963 4.69793
rtibia 13.2488
rfoot -14.9706 -6.44831
rtoes -31.2386
lfemur -20.8183 -12.701 -13.2703
ltibia 15.6665
lfoot -16.3443 6.87158
ltoes -43.0734
472
root 0.748024 17.8289 19.5098 -156.264 -3.29019 179.899
lowerback -23.2606 -3.34512 -8.52473
upperback 0.652821 -2.37101 0.724992
thorax 14.2888 -1.82554 4.86991
lowerneck 0.63953 -7.08418 0.235991
upperneck 25.9377 -7.48436 0.7199
head 7.91216 -2.52094 -0.147992
rclavicle 2.19657e-014 7.55382e-015
rhumerus -45.1667 -17.1308 -74.5172
rradius 30.7732
rwrist -0.889005
rhand -9.67765 -56.7305
rfingers 7.12502
rthumb 16.294 633.934
lclavicle 2.19657e-014 7.55382e-015
lhumerus -28.5129 -3.8737 79.5494
lradius 26.1931
lwrist -0.225196
lhand -22.8774 -14.4206
lfingers 7.12502
lthumb 3.56153 15.5294
rfemur -34.316 5.35482 4.76045
rtibia 13.5668
rfoot -15.1129 -6.95053
rtoes -30.8879
lfemur -20.7565 -12.9165 -13.154
ltibia 15.6625
lfoot -16.3537 7.14954
ltoes -43.9835
473
root 0.811124 17.8177 19.4718 -156.148 -3.35799 179.786
lowerback -23.2504 -3.36631 -8.51346
upperback 0.587433 -2.41123 0.725135
thorax 14.2102 -1.84013 4.8498
lowerneck 0.250645 -6.96833 0.14392
upperneck 26.5232 -7.27226 0.781988
head 8.18673 -2.38213 -0.112408
rclavicle -1.65985e-014 -1.90833e-014
rhumerus -45.4316 -17.1397 -74.4259
rradius 31.1159
rwrist -0.770971
rhand -9.32343 -57.9073
rfingers 7.12502
rthumb 16.6351 632.786
lclavicle -1.65985e-014 -1.90833e-014
lhumerus -28.6796 -3.90455 79.5787
lradius 26.3284
lwrist -0.14641
lhand -22.9859 -14.4576
lfingers 7.12502
lthumb 3.45669 15.4942
rfemur -34.4762 5.46474 4.90013
rtibia 13.9048
rfoot -15.1025 -7.1466
rtoes -30.4037
lfemur -20.7331 -13.2692 -12.9539
ltibia 15.6391
lfoot -16.3822 7.42121
ltoes -44.1122
474
root 0.875898 17.8058 19.4332 -156.032 -3.3792 179.713
lowerback -23.1835 -3.33148 -8.41109
upperback 0.497385 -2.40619 0.69428
thorax 14.0564 -1.82332 4.7595
lowerneck 0.16371 -6.80656 0.065654
upperneck 26.7119 -7.0331 0.903437
head 8.27397 -2.24684 -0.0450113
rclavicle -3.97569e-015 1.03368e-014
rhumerus -45.6784 -17.1547 -74.3483
rradius 31.2904
rwrist -0.885897
rhand -9.1178 -57.9707
rfingers 7.12502
rthumb 16.833 632.739
lclavicle -3.97569e-015 1.03368e-014
lhumerus -28.8508 -4.03577 79.5988
lradius 26.4962
lwrist -0.188226
lhand -22.6901 -13.7701
lfingers 7.12502
lthumb 3.74238 16.1768
rfemur -34.7355 5.57712 5.09197
rtibia 14.436
rfoot -15.0162 -7.16562
rtoes -29.8147
lfemur -20.7252 -13.4689 -12.7532
ltibia 15.6861
lfoot -16.4203 7.7805
ltoes -45.2232
475
root 0.943609 17.7949 19.3931 -155.988 -3.43636 179.606
lowerback -22.3164 -3.33305 -8.4599
upperback -0.0496484 -2.54287 0.754244
thorax 12.9419 -1.85043 4.83536
lowerneck 0.422275 -6.82788 -0.0586242
upperneck 27.1581 -6.90393 0.76945
head 8.3815 -2.15829 -0.0501459
rclavicle 9.93923e-017 -2.8625e-014
rhumerus -46.4838 -16.5389 -74.1844
rradius 31.2698
rwrist -1.71823
rhand -9.7224 -57.2614
rfingers 7.12502
rthumb 16.251 633.4
lclavicle 9.93923e-017 -2.8625e-014
lhumerus -29.7548 -3.97256 79.693
lradius 26.6505
lwrist -0.531412
lhand -22.8592 -12.9609
lfingers 7.12502
lthumb 3.5791 16.9888
rfemur -34.9328 5.63935 5.27
rtibia 14.9689
rfoot -14.9456 -7.0957
rtoes -28.3166
lfemur -20.6275 -13.5107 -12.5988
ltibia 15.7211
lfoot -16.4905 7.95372
ltoes -46.2252
